<?xml version="1.0" standalone="no"?><!DOCTYPE svg PUBLIC "-//W3C//DTD SVG 1.1//EN" "http://www.w3.org/Graphics/SVG/1.1/DTD/svg11.dtd"><svg t="1713190006774" class="icon" viewBox="0 0 1024 1024" version="1.1" xmlns="http://www.w3.org/2000/svg" p-id="18933" xmlns:xlink="http://www.w3.org/1999/xlink" width="48" height="48"><path d="M256 117.333333h512v-64H256v64zM906.666667 256v512h64V256h-64zM768 906.666667H256v64h512v-64zM117.333333 768V256h-64v512h64zM256 906.666667A138.666667 138.666667 0 0 1 117.333333 768h-64A202.666667 202.666667 0 0 0 256 970.666667v-64zM906.666667 768A138.666667 138.666667 0 0 1 768 906.666667v64A202.666667 202.666667 0 0 0 970.666667 768h-64zM768 117.333333A138.666667 138.666667 0 0 1 906.666667 256h64A202.666667 202.666667 0 0 0 768 53.333333v64zM256 53.333333A202.666667 202.666667 0 0 0 53.333333 256h64A138.666667 138.666667 0 0 1 256 117.333333v-64zM309.333333 512a32 32 0 0 0 64 0h-64zM682.666667 384v32a32 32 0 0 0 22.613333-54.613333L682.666667 384z m-62.72-107.946667a32 32 0 1 0-45.226667 45.226667l45.226667-45.226667zM373.333333 512v-42.666667h-64v42.666667h64zM426.666667 416h256v-64h-256v64z m278.613333-54.613333l-85.333333-85.333334-45.226667 45.226667 85.333333 85.333333 45.226667-45.226666zM373.333333 469.333333c0-29.44 23.893333-53.333333 53.333334-53.333333v-64A117.333333 117.333333 0 0 0 309.333333 469.333333h64zM714.666667 512a32 32 0 0 0-64 0h64zM341.333333 640v-32a32 32 0 0 0-22.613333 54.613333L341.333333 640z m62.72 107.946667a32 32 0 1 0 45.226667-45.226667l-45.226667 45.226667zM650.666667 512v42.666667h64v-42.666667h-64zM597.333333 608H341.333333v64h256v-64z m-278.613333 54.613333l85.333333 85.333334 45.226667-45.226667-85.333333-85.333333-45.226667 45.226666zM650.666667 554.666667c0 29.44-23.893333 53.333333-53.333334 53.333333v64A117.333333 117.333333 0 0 0 714.666667 554.666667h-64z" p-id="18934" fill="#ff0000"></path></svg>