<?xml version="1.0" standalone="no"?><!DOCTYPE svg PUBLIC "-//W3C//DTD SVG 1.1//EN" "http://www.w3.org/Graphics/SVG/1.1/DTD/svg11.dtd"><svg t="1712224314348" class="icon" viewBox="0 0 1024 1024" version="1.1" xmlns="http://www.w3.org/2000/svg" p-id="26083" xmlns:xlink="http://www.w3.org/1999/xlink" width="48" height="48"><path d="M512 64c247.424 0 448 200.576 448 448S759.424 960 512 960 64 759.424 64 512 264.576 64 512 64z m0 64c-212.077 0-384 171.923-384 384s171.923 384 384 384 384-171.923 384-384-171.923-384-384-384z m228.502 423.5c17.673 0 32 14.327 32 32 0 17.496-14.042 31.713-31.471 31.996l-0.53 0.004H361.758l45.372 45.37c12.496 12.496 12.498 32.758 0 45.254-12.371 12.372-32.353 12.497-44.877 0.373l-0.377-0.372-99-98.994c-0.176-0.177-0.35-0.355-0.522-0.534-6.071-5.825-9.851-14.02-9.851-23.097 0-17.496 14.042-31.713 31.47-31.996l0.53-0.004h456z m-77.754-233.997l0.377 0.372 99 98.994c0.176 0.177 0.35 0.355 0.522 0.534 6.071 5.825 9.851 14.02 9.851 23.097 0 17.496-14.042 31.713-31.47 31.996l-0.53 0.004h-456c-17.673 0-32-14.327-32-32 0-17.496 14.042-31.713 31.471-31.996l0.53-0.004h378.744l-45.372-45.37c-12.496-12.496-12.498-32.758 0-45.254 12.371-12.372 32.353-12.497 44.877-0.373z" fill="#ff0000" p-id="26084"></path></svg>