<?xml version="1.0" standalone="no"?><!DOCTYPE svg PUBLIC "-//W3C//DTD SVG 1.1//EN" "http://www.w3.org/Graphics/SVG/1.1/DTD/svg11.dtd"><svg t="1714653781187" class="icon" viewBox="0 0 1024 1024" version="1.1" xmlns="http://www.w3.org/2000/svg" p-id="117186" xmlns:xlink="http://www.w3.org/1999/xlink" width="48" height="48"><path d="M554.385 649.818c60.984 0 110.42 49.438 110.42 110.422v71.337c0 60.985-49.436 110.423-110.42 110.423h-73.613c-60.984 0-110.42-49.438-110.42-110.423V760.24c0-60.984 49.436-110.422 110.42-110.422z m354.71-384.18c16.516 0 29.905 13.39 29.905 29.907 0 16.28-13.01 29.523-29.2 29.898l-0.706 0.008-85.698-0.002c73.944 60.315 109.423 139.953 104.748 227.568-4.907 91.947-54.43 185.401-133.081 255.707-12.314 11.008-31.22 9.949-42.227-2.365-11.007-12.314-9.948-31.22 2.366-42.227 67.356-60.21 109.207-139.185 113.215-214.301 3.848-72.108-26.654-136.655-93.188-186.12l-0.003 95.605c0 16.28-13.01 29.522-29.2 29.898l-0.705 0.008c-16.28 0-29.523-13.01-29.898-29.2l-0.008-0.706V295.545c0-16.28 13.01-29.523 29.2-29.898l0.706-0.008h163.773zM307.23 232.944c8.535 13.86 4.404 31.952-9.178 40.763l-0.606 0.383c-83.06 51.147-121.293 122.009-117.012 202.229 3.192 59.815 30.38 122.078 75.335 175.364l0.004-98.484c0-16.28 13.01-29.523 29.2-29.898l0.705-0.008c16.28 0 29.523 13.01 29.898 29.2l0.008 0.706v163.77c0 16.281-13.01 29.523-29.2 29.898l-0.706 0.009H121.906c-16.517 0-29.906-13.39-29.906-29.907 0-16.28 13.01-29.522 29.2-29.898l0.706-0.008 85.484 0.002c-51.428-62.145-82.826-135.318-86.682-207.56-5.463-102.373 43.896-193.855 145.376-256.345 14.064-8.66 32.486-4.28 41.147 9.784zM554.385 77c60.984 0 110.42 49.438 110.42 110.423v73.615c0 60.985-49.436 110.422-110.42 110.422h-73.613c-60.984 0-110.42-49.437-110.42-110.422v-73.615C370.351 126.438 419.787 77 480.771 77z" fill="#ff0000" p-id="117187"></path></svg>