<?xml version="1.0" standalone="no"?><!DOCTYPE svg PUBLIC "-//W3C//DTD SVG 1.1//EN" "http://www.w3.org/Graphics/SVG/1.1/DTD/svg11.dtd"><svg t="1711334040837" class="icon" viewBox="0 0 1024 1024" version="1.1" xmlns="http://www.w3.org/2000/svg" p-id="8012" xmlns:xlink="http://www.w3.org/1999/xlink" width="100" height="100"><path d="M661.333333 64h-298.666666a298.666667 298.666667 0 0 0-298.666667 298.666667v298.666666a298.666667 298.666667 0 0 0 298.666667 298.666667h298.666666a298.666667 298.666667 0 0 0 298.666667-298.666667v-298.666666a298.666667 298.666667 0 0 0-298.666667-298.666667z m213.333334 597.333333a213.333333 213.333333 0 0 1-213.333334 213.333334h-298.666666a213.333333 213.333333 0 0 1-213.333334-213.333334v-298.666666a213.333333 213.333333 0 0 1 213.333334-213.333334h298.666666a213.333333 213.333333 0 0 1 213.333334 213.333334z" fill="#8a8a8a" p-id="8013"></path><path d="M705.706667 253.44l-119.04 119.466667V302.933333a42.666667 42.666667 0 0 0-85.333334 0V469.333333a42.666667 42.666667 0 0 0 14.08 31.146667 42.666667 42.666667 0 0 0 33.28 17.066667h167.253334a42.666667 42.666667 0 0 0 0-85.333334h-69.12L768 314.026667a42.666667 42.666667 0 1 0-60.586667-60.586667zM500.053333 531.2a42.666667 42.666667 0 0 0-33.28-17.066667H298.666667a42.666667 42.666667 0 0 0 0 85.333334h69.973333l-119.466667 119.04a42.666667 42.666667 0 0 0 0 60.586666 42.666667 42.666667 0 0 0 60.586667 0l119.04-119.466666v69.973333a42.666667 42.666667 0 0 0 85.333333 0v-167.253333a42.666667 42.666667 0 0 0-14.08-31.146667z" fill="#8a8a8a" p-id="8014"></path></svg>