<?xml version="1.0" standalone="no"?><!DOCTYPE svg PUBLIC "-//W3C//DTD SVG 1.1//EN" "http://www.w3.org/Graphics/SVG/1.1/DTD/svg11.dtd"><svg t="1712224064421" class="icon" viewBox="0 0 1024 1024" version="1.1" xmlns="http://www.w3.org/2000/svg" p-id="16608" xmlns:xlink="http://www.w3.org/1999/xlink" width="48" height="48"><path d="M678 98H346c-19.882 0-36 16.118-36 36v141c0 19.882 16.118 36 36 36h332c19.882 0 36-16.118 36-36V134c0-19.882-16.118-36-36-36z m-36 72v69H382v-69h260z" fill="#ff0000" p-id="16609"></path><path d="M912 243H112c-19.882 0-36 16.118-36 36v612c0 19.882 16.118 36 36 36h800c19.882 0 36-16.118 36-36V279c0-19.882-16.118-36-36-36z m-36 72v540H148V315h728z" fill="#ff0000" p-id="16610"></path><path d="M321.044 454.028c14.059-14.058 36.853-14.058 50.912 0 13.918 13.919 14.057 36.398 0.417 50.488l-0.417 0.424-85.56 85.56 85.56 85.56c13.918 13.918 14.057 36.398 0.417 50.487l-0.417 0.425c-13.918 13.918-36.398 14.057-50.487 0.417l-0.425-0.417-111.016-111.016c-13.918-13.918-14.057-36.398-0.417-50.487l0.417-0.425 111.016-111.016zM712.956 454.028c-14.059-14.058-36.853-14.058-50.912 0-13.918 13.919-14.057 36.398-0.417 50.488l0.417 0.424 85.56 85.56-85.56 85.56c-13.918 13.918-14.057 36.398-0.417 50.487l0.417 0.425c13.918 13.918 36.398 14.057 50.487 0.417l0.425-0.417 111.016-111.016c13.918-13.918 14.057-36.398 0.417-50.487l-0.417-0.425-111.016-111.016zM544.812 461.504c9.93-17.225 31.943-23.138 49.168-13.208 17.053 9.83 23.02 31.504 13.502 48.65l-0.294 0.518-128 222.032c-9.93 17.225-31.943 23.138-49.168 13.208-17.053-9.83-23.02-31.504-13.502-48.65l0.294-0.518 128-222.032z" fill="#ff0000" p-id="16611"></path></svg>