<?xml version="1.0" standalone="no"?><!DOCTYPE svg PUBLIC "-//W3C//DTD SVG 1.1//EN" "http://www.w3.org/Graphics/SVG/1.1/DTD/svg11.dtd"><svg t="1712200288966" class="icon" viewBox="0 0 1024 1024" version="1.1" xmlns="http://www.w3.org/2000/svg" p-id="5289" xmlns:xlink="http://www.w3.org/1999/xlink" width="48" height="48"><path d="M770.048 261.12c42.324992 43.691008 72.020992 94.548992 89.088 152.576h111.616v196.608H859.136c-17.067008 58.027008-46.763008 108.884992-89.088 152.576l56.32 97.28-169.984 98.304-56.32-97.28c-58.708992 15.019008-117.419008 15.019008-176.128 0l-56.32 97.28-169.984-98.304 56.32-97.28c-42.324992-43.691008-72.020992-94.548992-89.088-152.576H53.248V413.696h111.616c17.067008-58.027008 46.763008-108.884992 89.088-152.576l-56.32-97.28 169.984-98.304 56.32 97.28c58.708992-15.019008 117.419008-15.019008 176.128 0l56.32-97.28 169.984 98.304-56.32 97.28z m-61.44 250.88c-1.364992-55.979008-20.48-102.4-57.344-139.264s-83.284992-55.979008-139.264-57.344c-55.979008 1.364992-102.4 20.48-139.264 57.344s-55.979008 83.284992-57.344 139.264c1.364992 55.979008 20.48 102.4 57.344 139.264s83.284992 55.979008 139.264 57.344c55.979008-1.364992 102.4-20.48 139.264-57.344s55.979008-83.284992 57.344-139.264z" p-id="5290" fill="#ff0000"></path></svg>