<?xml version="1.0" standalone="no"?><!DOCTYPE svg PUBLIC "-//W3C//DTD SVG 1.1//EN" "http://www.w3.org/Graphics/SVG/1.1/DTD/svg11.dtd"><svg t="1714655015172" class="icon" viewBox="0 0 1024 1024" version="1.1" xmlns="http://www.w3.org/2000/svg" p-id="13777" xmlns:xlink="http://www.w3.org/1999/xlink" width="48" height="48"><path d="M512 32.036571a479.963429 479.963429 0 1 0 0 959.926858A479.963429 479.963429 0 0 0 992.036571 512 479.963429 479.963429 0 0 0 512 31.963429zM320.219429 143.067429c20.918857-10.971429 42.715429-20.187429 65.462857-27.428572-23.625143 34.669714-43.958857 78.628571-59.977143 129.609143-23.771429-15.213714-37.741714-33.499429-37.741714-53.248 0-17.993143 12.288-34.596571 32.329142-49.005714z m-93.110858 66.267428c7.460571 37.595429 36.864 71.314286 82.797715 96.548572-11.849143 53.394286-19.236571 112.054857-21.138286 174.08H97.572571a414.427429 414.427429 0 0 1 129.536-270.628572z m0 605.330286a414.427429 414.427429 0 0 1-129.462857-270.628572h191.049143c1.901714 62.025143 9.362286 120.685714 21.211429 174.08-45.933714 25.088-75.337143 58.953143-82.797715 96.548572z m93.110858 66.267428c-19.968-14.409143-32.182857-31.012571-32.182858-48.932571 0-19.748571 13.897143-38.034286 37.741715-53.321143 15.945143 50.980571 36.278857 95.012571 59.904 129.682286a411.428571 411.428571 0 0 1-65.389715-27.428572z m159.744 38.692572c-40.155429-21.211429-74.752-81.92-97.865143-165.595429a425.545143 425.545143 0 0 1 97.865143-16.676571v182.272z m0-245.833143a454.582857 454.582857 0 0 0-111.616 20.260571 966.436571 966.436571 0 0 1-15.725715-150.089142h127.414857v129.828571z m0-193.828571h-127.268572c1.243429-50.322286 6.509714-100.498286 15.652572-150.016a460.580571 460.580571 0 0 0 111.689142 20.333714v129.755428z m0-193.316572a432.493714 432.493714 0 0 1-97.865143-16.676571c23.113143-83.748571 57.709714-144.310857 97.865143-165.595429V286.72z m316.928-77.312a414.061714 414.061714 0 0 1 129.462857 270.628572h-191.122286a942.372571 942.372571 0 0 0-21.211429-174.08c46.006857-25.161143 75.410286-58.953143 82.870858-96.548572zM703.634286 143.067429c20.041143 14.336 32.256 30.939429 32.256 48.932571 0 19.748571-13.897143 38.034286-37.741715 53.248-15.945143-50.980571-36.278857-95.012571-59.977142-129.609143a409.6 409.6 0 0 1 65.462857 27.428572z m-159.744-38.692572c40.228571 21.211429 74.898286 81.92 98.011428 165.595429a432.493714 432.493714 0 0 1-98.011428 16.676571V104.374857z m0 245.906286a460.068571 460.068571 0 0 0 111.689143-20.260572c8.630857 45.860571 14.189714 96.402286 15.725714 149.942858H543.963429V350.354286z m0 193.755428H671.451429a968.045714 968.045714 0 0 1-15.725715 150.089143 453.997714 453.997714 0 0 0-111.689143-20.260571V544.036571z m0 375.588572V737.28c33.206857 1.682286 66.048 7.314286 98.011428 16.676571-23.113143 83.748571-57.782857 144.384-98.011428 165.595429z m159.744-38.692572a417.645714 417.645714 0 0 1-65.389715 27.501715c23.625143-34.742857 44.032-78.701714 59.977143-129.682286 23.844571 15.213714 37.741714 33.499429 37.741715 53.321143 0 17.846857-12.288 34.523429-32.329143 48.859428z m93.184-66.267428c-7.460571-37.595429-36.937143-71.387429-82.870857-96.548572 12.507429-57.197714 19.602286-115.565714 21.211428-174.08h191.122286a414.061714 414.061714 0 0 1-129.462857 270.628572z" fill="#ff0000" p-id="13778"></path></svg>