<?xml version="1.0" standalone="no"?><!DOCTYPE svg PUBLIC "-//W3C//DTD SVG 1.1//EN" "http://www.w3.org/Graphics/SVG/1.1/DTD/svg11.dtd"><svg t="1714653623084" class="icon" viewBox="0 0 1024 1024" version="1.1" xmlns="http://www.w3.org/2000/svg" p-id="110311" xmlns:xlink="http://www.w3.org/1999/xlink" width="48" height="48"><path d="M512 25.6c268.629333 0 486.4 217.770667 486.4 486.4S780.629333 998.4 512 998.4 25.6 780.629333 25.6 512 243.370667 25.6 512 25.6z m131.605333 524.821333H380.394667c0.170667 5.12 0.384 10.197333 0.64 15.253334l0.981333 17.429333 1.237333 17.173333 0.725334 8.490667 1.6 16.768c0.597333 5.546667 1.216 11.029333 1.877333 16.469333l2.090667 16.149334c0.725333 5.333333 1.493333 10.602667 2.304 15.829333l2.517333 15.488c0.896 5.098667 1.792 10.133333 2.752 15.125333l2.922667 14.741334c1.002667 4.864 2.048 9.664 3.114666 14.378666l3.285334 13.952 1.706666 6.826667 3.562667 13.333333 3.712 12.885334 3.84 12.416c0.661333 2.048 1.322667 4.053333 2.005333 6.037333l4.053334 11.733333c1.386667 3.797333 2.773333 7.552 4.202666 11.2l4.309334 10.688c2.176 5.226667 4.416 10.24 6.677333 15.061334l4.565333 9.344C465.856 898.005333 489.344 921.6 512 921.6c22.656 0 46.144-23.594667 66.922667-64.405333l4.565333-9.344c2.261333-4.821333 4.48-9.813333 6.677333-15.061334l4.309334-10.688c1.429333-3.648 2.816-7.402667 4.202666-11.221333l4.053334-11.712c0.682667-1.984 1.344-3.989333 1.984-6.037333l3.861333-12.416 3.712-12.885334 3.541333-13.333333 1.706667-6.826667 3.306667-13.952c1.066667-4.714667 2.112-9.514667 3.114666-14.378666l2.922667-14.741334c1.429333-7.466667 2.773333-15.082667 4.032-22.826666l2.410667-15.658667c0.405333-2.645333 0.768-5.290667 1.130666-7.957333l2.090667-16.149334c0.661333-5.44 1.28-10.944 1.877333-16.469333l1.6-16.768 0.725334-8.490667 1.237333-17.173333 0.981333-17.429333a1102.933333 1102.933333 0 0 0 0.64-15.253334zM303.530667 550.4H104.170667c15.253333 163.904 127.04 299.754667 277.930666 350.165333a462.933333 462.933333 0 0 1-31.317333-70.016l-4.48-13.013333-4.288-13.418667-4.074667-13.76a768.682667 768.682667 0 0 1-10.986666-43.370666l-3.221334-15.125334-3.008-15.402666-2.773333-15.722667-2.56-16a1014.314667 1014.314667 0 0 1-2.346667-16.234667l-2.090666-16.533333-0.938667-8.341333-1.749333-16.896-1.493334-17.109334c-0.704-8.597333-1.28-17.28-1.792-26.048l-0.896-17.642666-0.341333-8.874667-0.213333-6.656z m616.298666 0H720.426667l-0.192 6.656-0.341334 8.874667-0.896 17.642666c-0.490667 8.746667-1.088 17.450667-1.792 26.048l-1.493333 17.109334-1.749333 16.896-0.938667 8.341333-2.112 16.533333c-0.725333 5.461333-1.493333 10.88-2.325333 16.256l-2.56 16-2.773334 15.701334-2.986666 15.402666-1.6 7.594667-3.349334 14.954667a758.186667 758.186667 0 0 1-9.28 35.946666l-4.074666 13.76-4.288 13.418667-4.48 13.013333a461.056 461.056 0 0 1-31.338667 70.016c150.912-50.410667 262.698667-186.261333 277.952-350.144zM382.122667 123.456l-2.218667 0.725333C230.122667 175.146667 119.338667 310.506667 104.170667 473.6h199.36l0.213333-6.656 0.341333-8.874667 0.896-17.642666c0.490667-8.746667 1.088-17.450667 1.792-26.048l1.493334-17.109334 1.749333-16.896 0.938667-8.341333 2.112-16.533333c0.725333-5.461333 1.493333-10.88 2.325333-16.256l2.56-16 2.773333-15.701334 2.986667-15.402666 1.6-7.594667 3.349333-14.954667c2.858667-12.330667 5.973333-24.32 9.28-35.946666l4.074667-13.76 4.288-13.418667 4.48-13.013333a461.056 461.056 0 0 1 31.338667-70.016z m130.346666-21.034667h-0.938666c-22.506667 0.32-45.824 23.872-66.453334 64.405334l-4.565333 9.344c-2.261333 4.821333-4.48 9.813333-6.677333 15.061333l-4.309334 10.688a489.813333 489.813333 0 0 0-4.202666 11.221333l-4.053334 11.712c-0.682667 1.984-1.344 3.989333-1.984 6.037334l-3.861333 12.416-3.712 12.885333-3.541333 13.333333-1.706667 6.826667-3.306667 13.952c-1.066667 4.714667-2.112 9.514667-3.114666 14.378667l-2.922667 14.741333c-1.429333 7.466667-2.773333 15.082667-4.032 22.826667l-2.410667 15.658666c-0.405333 2.645333-0.768 5.290667-1.130666 7.957334l-2.090667 16.149333c-0.661333 5.44-1.28 10.944-1.877333 16.469333l-1.6 16.768-0.725334 8.490667-1.237333 17.173333-0.981333 17.429334a1102.933333 1102.933333 0 0 0-0.64 15.274666h263.189333l-0.618667-15.274666-0.981333-17.429334-1.237333-17.173333-0.725334-8.490667-1.6-16.768c-0.597333-5.546667-1.216-11.029333-1.877333-16.469333l-2.090667-16.149333a968.106667 968.106667 0 0 0-2.304-15.829334l-2.517333-15.488c-0.896-5.098667-1.792-10.133333-2.752-15.125333l-2.922667-14.741333a819.690667 819.690667 0 0 0-3.114666-14.378667l-3.285334-13.952-1.706666-6.826667-3.562667-13.333333-3.712-12.885333-3.84-12.416c-0.661333-2.048-1.322667-4.053333-2.005333-6.037334l-4.053334-11.733333a489.813333 489.813333 0 0 0-4.202666-11.2l-4.309334-10.688c-2.176-5.226667-4.416-10.24-6.677333-15.061333l-4.565333-9.344C558.144 125.994667 534.656 102.4 512 102.4h0.469333z m129.429334 21.034667l2.645333 4.821333c10.538667 19.477333 20.117333 41.322667 28.672 65.194667l4.48 13.013333 4.288 13.418667 4.074667 13.76c3.989333 13.952 7.658667 28.416 10.986666 43.370667l3.221334 15.125333 3.008 15.402667 2.773333 15.722666 2.56 16c0.832 5.354667 1.6 10.773333 2.346667 16.234667l2.090666 16.533333 0.938667 8.341334 1.749333 16.896 1.493334 17.109333c0.704 8.597333 1.28 17.28 1.792 26.048l0.896 17.642667 0.341333 8.874666 0.192 6.656h199.381333c-15.232-163.882667-127.018667-299.733333-277.930666-350.165333z" fill="#ff0000" p-id="110312"></path></svg>