<?xml version="1.0" standalone="no"?><!DOCTYPE svg PUBLIC "-//W3C//DTD SVG 1.1//EN" "http://www.w3.org/Graphics/SVG/1.1/DTD/svg11.dtd"><svg t="1714653697126" class="icon" viewBox="0 0 1024 1024" version="1.1" xmlns="http://www.w3.org/2000/svg" p-id="114782" xmlns:xlink="http://www.w3.org/1999/xlink" width="48" height="48"><path d="M640 631.467a8.533 8.533 0 0 0-8.533 8.533v213.333a8.533 8.533 0 0 0 8.533 8.534h213.333a8.533 8.533 0 0 0 8.534-8.534V640a8.533 8.533 0 0 0-8.534-8.533z m0-68.267h213.333a76.8 76.8 0 0 1 76.8 76.8v213.333a76.8 76.8 0 0 1-76.8 76.8H640a76.8 76.8 0 0 1-76.8-76.8V640a76.8 76.8 0 0 1 76.8-76.8z m0-401.067a8.533 8.533 0 0 0-8.533 8.534V384a8.533 8.533 0 0 0 8.533 8.533h213.333a8.533 8.533 0 0 0 8.534-8.533V170.667a8.533 8.533 0 0 0-8.534-8.534z m0-68.266h213.333a76.8 76.8 0 0 1 76.8 76.8V384a76.8 76.8 0 0 1-76.8 76.8H640a76.8 76.8 0 0 1-76.8-76.8V170.667a76.8 76.8 0 0 1 76.8-76.8z m-469.333 537.6a8.533 8.533 0 0 0-8.534 8.533v213.333a8.533 8.533 0 0 0 8.534 8.534H384a8.533 8.533 0 0 0 8.533-8.534V640a8.533 8.533 0 0 0-8.533-8.533z m0-68.267H384a76.8 76.8 0 0 1 76.8 76.8v213.333a76.8 76.8 0 0 1-76.8 76.8H170.667a76.8 76.8 0 0 1-76.8-76.8V640a76.8 76.8 0 0 1 76.8-76.8z m0-401.067a8.533 8.533 0 0 0-8.534 8.534V384a8.533 8.533 0 0 0 8.534 8.533H384a8.533 8.533 0 0 0 8.533-8.533V170.667a8.533 8.533 0 0 0-8.533-8.534z m0-68.266H384a76.8 76.8 0 0 1 76.8 76.8V384a76.8 76.8 0 0 1-76.8 76.8H170.667a76.8 76.8 0 0 1-76.8-76.8V170.667a76.8 76.8 0 0 1 76.8-76.8z" fill="#ff0000" p-id="114783"></path></svg>