<?xml version="1.0" standalone="no"?><!DOCTYPE svg PUBLIC "-//W3C//DTD SVG 1.1//EN" "http://www.w3.org/Graphics/SVG/1.1/DTD/svg11.dtd"><svg t="1713278391986" class="icon" viewBox="0 0 1024 1024" version="1.1" xmlns="http://www.w3.org/2000/svg" p-id="6297" xmlns:xlink="http://www.w3.org/1999/xlink" width="48" height="48"><path d="M869.553252 971.614553H153.54355c-68.4172 0-123.963837-55.546637-123.963837-123.963836V389.503859c0-68.4172 55.546637-123.963837 123.963837-123.963837h716.235502c68.4172 0 123.963837 55.546637 123.963837 123.963837v458.146858c-0.225799 68.1914-55.772437 123.963837-124.189637 123.963836zM153.54355 333.279824c-30.934509 0-56.224035 25.289526-56.224035 56.224035v458.146858c0 30.934509 25.289526 56.224035 56.224035 56.224035h716.235502c30.934509 0 56.224035-25.289526 56.224035-56.224035V389.503859c0-30.934509-25.289526-56.224035-56.224035-56.224035H153.54355z" fill="#ff0000" p-id="6298"></path><path d="M753.492393 333.279824c-18.741345 0-33.869901-15.128556-33.869901-33.869901V211.57398c0-20.32194-16.483352-36.805292-36.805292-36.805292H347.053583c-20.32194 0-36.805292 16.483352-36.805292 36.805292v87.835943c0 18.741345-15.128556 33.869901-33.869901 33.869901s-33.869901-15.128556-33.8699-33.869901V211.57398a104.770893 104.770893 0 0 1 104.545093-104.545094h335.763617a104.770893 104.770893 0 0 1 104.545093 104.545094v87.835943c0 18.741345-15.128556 33.869901-33.8699 33.869901zM561.562955 634.72194h-93.029328c-43.579272 0-79.029768-35.450496-79.029768-79.029768v-26.644322c0-43.579272 35.450496-79.029768 79.029768-79.029768h93.029328c43.579272 0 79.029768 35.450496 79.029768 79.029768v26.644322c0 43.579272-35.450496 79.029768-79.029768 79.029768z m-93.029328-117.189856c-6.096582 0-11.289967 5.193385-11.289967 11.289967v26.644322c0 6.096582 5.193385 11.289967 11.289967 11.289967h93.029328c6.096582 0 11.289967-5.193385 11.289967-11.289967v-26.644322c0-6.096582-5.193385-11.289967-11.289967-11.289967h-93.029328z" fill="#ff0000" p-id="6299"></path><path d="M959.647189 576.014112H606.722822c-18.741345 0-33.869901-15.128556-33.8699-33.8699s15.128556-33.869901 33.8699-33.869901H959.647189c18.741345 0 33.869901 15.128556 33.8699 33.869901s-15.128556 33.869901-33.8699 33.8699zM423.37376 576.014112H63.449614c-18.741345 0-33.869901-15.128556-33.869901-33.8699s15.128556-33.869901 33.869901-33.869901h359.924146c18.741345 0 33.869901 15.128556 33.8699 33.869901s-15.128556 33.869901-33.8699 33.8699z" fill="#ff0000" p-id="6300"></path></svg>