<?xml version="1.0" standalone="no"?><!DOCTYPE svg PUBLIC "-//W3C//DTD SVG 1.1//EN" "http://www.w3.org/Graphics/SVG/1.1/DTD/svg11.dtd"><svg t="1713702479954" class="icon" viewBox="0 0 1024 1024" version="1.1" xmlns="http://www.w3.org/2000/svg" p-id="4400" xmlns:xlink="http://www.w3.org/1999/xlink" width="48" height="48"><path d="M814.08 43.52H182.784c-71.168 0-126.976 55.808-126.976 126.976v682.496c0 71.168 55.808 126.976 126.976 126.976H814.08c86.016 0 153.6-67.584 153.6-153.6V197.632c0.512-86.528-67.072-154.112-153.6-154.112z m95.232 154.112v629.248c0 52.224-42.496 94.72-94.72 94.72H309.76V102.4H814.08c53.248 0 95.232 41.984 95.232 95.232zM250.88 102.4v819.2h-40.96c-53.248 0-94.72-41.472-94.72-94.72V197.632C114.688 144.384 156.672 102.4 209.92 102.4h40.96z" fill="#ff0000" p-id="4401"></path><path d="M628.224 653.312H425.472c-17.408 0-29.696 12.288-29.696 29.696s12.288 29.696 29.696 29.696h202.752c17.408 0 29.696-12.288 29.696-29.696s-12.288-29.696-29.696-29.696zM750.08 482.304H425.472c-17.408 0-29.696 12.288-29.696 29.696s12.288 29.696 29.696 29.696h324.608c17.408 0 29.696-12.288 29.696-29.696s-12.288-29.696-29.696-29.696zM750.08 311.808H425.472c-17.408 0-29.696 12.288-29.696 29.696s12.288 29.696 29.696 29.696h324.608c17.408 0 29.696-12.288 29.696-29.696s-12.288-29.696-29.696-29.696z" fill="#ff0000" p-id="4402"></path></svg>