<?xml version="1.0" standalone="no"?><!DOCTYPE svg PUBLIC "-//W3C//DTD SVG 1.1//EN" "http://www.w3.org/Graphics/SVG/1.1/DTD/svg11.dtd"><svg t="1711434351438" class="icon" viewBox="0 0 1024 1024" version="1.1" xmlns="http://www.w3.org/2000/svg" p-id="4295" xmlns:xlink="http://www.w3.org/1999/xlink" width="100" height="100"><path d="M768 767.920858 768 192.158291C768 157.168701 739.431322 128 704.190074 128L319.809929 128C284.994324 128 256 156.724645 256 192.158291L256 767.920858 256 704 768 704 768 767.920858ZM192 192.374954C192 121.475425 248.795731 64 319.975359 64L704.02464 64C774.703482 64 832 121.411848 832 192.374954L832 831.625043C832 902.524576 775.204269 960 704.02464 960L319.975359 960C249.29652 960 192 902.588154 192 831.625043L192 192.374954ZM512 896C547.346224 896 576 867.346221 576 832 576 796.653779 547.346224 768 512 768 476.653776 768 448 796.653779 448 832 448 867.346221 476.653776 896 512 896Z" fill="#999" p-id="4296"></path></svg>