<?xml version="1.0" standalone="no"?><!DOCTYPE svg PUBLIC "-//W3C//DTD SVG 1.1//EN" "http://www.w3.org/Graphics/SVG/1.1/DTD/svg11.dtd"><svg t="1711594960681" class="icon" viewBox="0 0 1365 1024" version="1.1" xmlns="http://www.w3.org/2000/svg" p-id="6410" width="266.6015625" height="200" data-spm-anchor-id="a313x.search_index.0.i7.117c3a81zDPjGH" xmlns:xlink="http://www.w3.org/1999/xlink"><path d="M1358.421333 329.386667L1136.298667 14.279111A33.848889 33.848889 0 0 0 1108.593778 0h-850.488889c-10.808889 0-21.048889 5.319111-27.420445 14.307556L6.371556 329.358222a34.702222 34.702222 0 0 0-6.371556 19.911111v639.943111a34.133333 34.133333 0 0 0 33.792 34.218667h1296.924444a34.133333 34.133333 0 0 0 33.792-34.218667V349.269333a32.540444 32.540444 0 0 0-6.087111-19.911111z m-924.444444 75.150222l22.698667 88.661333c10.24 39.537778 49.863111 70.712889 90.282666 70.712889h270.307556c40.419556 0 80.042667-31.146667 90.282666-70.712889l22.698667-88.661333c2.503111-9.528889 14.961778-19.342222 24.945778-19.342222h341.731555v569.799111H67.84V385.194667H409.6c9.671111 0 22.158222 9.528889 24.376889 19.342222z" fill="#8a8a8a" p-id="6411"></path></svg>