<?xml version="1.0" standalone="no"?><!DOCTYPE svg PUBLIC "-//W3C//DTD SVG 1.1//EN" "http://www.w3.org/Graphics/SVG/1.1/DTD/svg11.dtd"><svg t="1711591697424" class="icon" viewBox="0 0 1024 1024" version="1.1" xmlns="http://www.w3.org/2000/svg" p-id="5179" xmlns:xlink="http://www.w3.org/1999/xlink" width="32" height="32"><path d="M913.95109 457.784728a425.885876 425.885876 0 0 1-687.379804 336.023956 490.066877 490.066877 0 0 0 604.757944-587.722509 422.351023 422.351023 0 0 1 82.62186 251.698553z" fill="#2c2c2c" p-id="5180"></path><path d="M938.737648 1014.332391l-179.170188-187.389786a454.377641 454.377641 0 0 1-271.417069 89.010148 454.846115 454.846115 0 0 1-323.673266-134.068873 454.846115 454.846115 0 0 1-134.068873-323.673266 454.760938 454.760938 0 0 1 134.068873-323.673266A454.888704 454.888704 0 0 1 488.150391 0.425886a454.846115 454.846115 0 0 1 323.673266 134.111462 454.760938 454.760938 0 0 1 134.068873 323.673266 454.846115 454.846115 0 0 1-134.068873 323.673266l-3.62003 3.577441 176.657461 184.877059a31.984029 31.984029 0 0 1-1.022126 45.186491 31.771086 31.771086 0 0 1-22.060888 8.815838 31.898852 31.898852 0 0 1-23.040426-10.008318zM94.163367 457.997671a394.370321 394.370321 0 0 0 393.944435 393.901847 394.370321 394.370321 0 0 0 393.944436-393.901847 394.370321 394.370321 0 0 0-393.944436-393.944435 394.370321 394.370321 0 0 0-393.944435 393.774081z" fill="#2c2c2c" p-id="5181"></path><path d="M242.329063 605.694893a31.941441 31.941441 0 0 1-28.917651-18.313093 303.912161 303.912161 0 0 1 104.597572-381.12527 31.941441 31.941441 0 1 1 35.817002 52.895025 240.02928 240.02928 0 0 0-82.62186 300.973549 31.941441 31.941441 0 0 1-28.875063 45.569789z" fill="#2c2c2c" p-id="5182"></path></svg>