<?xml version="1.0" standalone="no"?><!DOCTYPE svg PUBLIC "-//W3C//DTD SVG 1.1//EN" "http://www.w3.org/Graphics/SVG/1.1/DTD/svg11.dtd"><svg t="1713189912432" class="icon" viewBox="0 0 1024 1024" version="1.1" xmlns="http://www.w3.org/2000/svg" p-id="15914" xmlns:xlink="http://www.w3.org/1999/xlink" width="48" height="48"><path d="M426.666667 896H262.826667A131.84 131.84 0 0 1 128 768V256a131.84 131.84 0 0 1 134.826667-128h498.346666A131.84 131.84 0 0 1 896 256v186.88a32 32 0 0 1-64 0V256a67.413333 67.413333 0 0 0-70.826667-64H262.826667A67.413333 67.413333 0 0 0 192 256v512a67.413333 67.413333 0 0 0 70.826667 64H426.666667a32 32 0 0 1 0 64z" p-id="15915" fill="#ff0000"></path><path d="M643.413333 514.133333a128 128 0 0 1 128 128 128 128 0 0 1-128 128 128 128 0 0 1-128-128 128 128 0 0 1 128-128m0-64a193.706667 193.706667 0 1 0 136.96 56.746667 192.853333 192.853333 0 0 0-136.96-56.746667z" p-id="15916" fill="#ff0000"></path><path d="M864 896a31.573333 31.573333 0 0 1-22.613333-9.386667l-85.333334-85.333333a32 32 0 1 1 45.226667-45.226667l85.333333 85.333334a32 32 0 0 1 0 45.226666 31.573333 31.573333 0 0 1-22.613333 9.386667zM426.666667 896H262.826667A131.84 131.84 0 0 1 128 768V256a131.84 131.84 0 0 1 134.826667-128h498.346666A131.84 131.84 0 0 1 896 256v186.88a32 32 0 0 1-64 0V256a67.413333 67.413333 0 0 0-70.826667-64H262.826667A67.413333 67.413333 0 0 0 192 256v512a67.413333 67.413333 0 0 0 70.826667 64H426.666667a32 32 0 0 1 0 64z" p-id="15917" fill="#ff0000"></path><path d="M643.413333 514.133333a128 128 0 0 1 128 128 128 128 0 0 1-128 128 128 128 0 0 1-128-128 128 128 0 0 1 128-128m0-64a193.706667 193.706667 0 1 0 136.96 56.746667 192.853333 192.853333 0 0 0-136.96-56.746667z" p-id="15918" fill="#ff0000"></path><path d="M864 896a31.573333 31.573333 0 0 1-22.613333-9.386667l-85.333334-85.333333a32 32 0 1 1 45.226667-45.226667l85.333333 85.333334a32 32 0 0 1 0 45.226666 31.573333 31.573333 0 0 1-22.613333 9.386667zM453.12 352H298.666667a32 32 0 0 1 0-64h154.453333a32 32 0 1 1 0 64zM367.786667 469.333333H298.666667a32 32 0 0 1 0-64h69.12a32 32 0 1 1 0 64z" p-id="15919" fill="#ff0000"></path></svg>