<?xml version="1.0" standalone="no"?><!DOCTYPE svg PUBLIC "-//W3C//DTD SVG 1.1//EN" "http://www.w3.org/Graphics/SVG/1.1/DTD/svg11.dtd"><svg t="1714653747324" class="icon" viewBox="0 0 1024 1024" version="1.1" xmlns="http://www.w3.org/2000/svg" p-id="116179" xmlns:xlink="http://www.w3.org/1999/xlink" width="48" height="48"><path d="M512 858.3168c-194.816 0-352-166.2464-352-370.4832S317.184 117.3504 512 117.3504s352 166.2464 352 370.4832-157.184 370.4832-352 370.4832z m0-64c158.6688 0 288-136.8576 288-306.4832 0-169.6768-129.3312-306.4832-288-306.4832S224 318.1568 224 487.8336c0 169.6256 129.3312 306.4832 288 306.4832zM717.312 799.9488a32 32 0 0 1 46.4896-43.9808l91.4432 96.7168a32 32 0 0 1-46.4896 43.9808l-91.4432-96.768z" fill="#ff0000" p-id="116180"></path></svg>