<?xml version="1.0" standalone="no"?><!DOCTYPE svg PUBLIC "-//W3C//DTD SVG 1.1//EN" "http://www.w3.org/Graphics/SVG/1.1/DTD/svg11.dtd"><svg t="1712226244090" class="icon" viewBox="0 0 1024 1024" version="1.1" xmlns="http://www.w3.org/2000/svg" p-id="47112" xmlns:xlink="http://www.w3.org/1999/xlink" width="48" height="48"><path d="M1014.970018 971.626102l-242.725926-242.725926c-0.361199-0.361199-0.722399-0.361199-0.722399-0.722398 67.183069-77.296649 107.998589-178.071252 107.998589-288.237037C879.159083 196.853616 682.305467 0 439.579541 0S0 196.853616 0 439.579541s196.853616 439.579541 439.579541 439.579542c110.526984 0 211.301587-40.81552 288.237037-107.998589 0.361199 0.361199 0.361199 0.722399 0.722399 0.722398L971.626102 1014.970018c6.140388 6.140388 13.725573 9.029982 21.671958 9.029982s15.892769-2.889594 21.671958-9.029982c11.919577-11.919577 11.919577-31.424339 0-43.343916z m-575.390477-153.870899C231.167549 817.755203 61.40388 647.991534 61.40388 439.579541S231.167549 61.40388 439.579541 61.40388s378.175661 169.763668 378.175662 378.175661-169.763668 378.175661-378.175662 378.175662z" p-id="47113" fill="#ff0000"></path><path d="M575.390476 312.07619H282.457848c-16.976367 0-30.70194 13.725573-30.70194 30.701941s13.725573 30.70194 30.70194 30.70194h292.932628c16.976367 0 30.70194-13.725573 30.70194-30.70194s-13.725573-30.70194-30.70194-30.701941zM481.11746 506.040212h-198.659612c-16.976367 0-30.70194 13.725573-30.70194 30.70194s13.725573 30.70194 30.70194 30.70194h198.298413c16.976367 0 30.70194-13.725573 30.70194-30.70194s-13.364374-30.70194-30.340741-30.70194z" p-id="47114" fill="#ff0000"></path></svg>